<?xml version="1.0"?>
<svg xmlns="http://www.w3.org/2000/svg" xmlns:xlink="http://www.w3.org/1999/xlink" xmlns:svgjs="http://svgjs.com/svgjs" version="1.1" width="512" height="512" x="0" y="0" viewBox="0 0 480.002 480.002" style="enable-background:new 0 0 512 512" xml:space="preserve" class="">
    <g>
        <path xmlns="http://www.w3.org/2000/svg" d="m477.609 91.109c-3.151-3.096-8.217-3.053-11.313.099-15.2 15.467-31.236 29.803-47.986 42.987-3.627-3.94-8.991-10.295-14.8-19.372-2.382-3.723-7.33-4.807-11.05-2.426-3.722 2.382-4.807 7.33-2.425 11.051 5.945 9.289 11.49 16.031 15.495 20.477-52.022 38.316-110.762 66.094-173.241 81.877-5.724-8.024-10.052-16.796-12.865-26.151-1.272-4.231-5.733-6.633-9.965-5.357-4.231 1.272-6.63 5.733-5.357 9.965 2.699 8.977 6.592 17.483 11.567 25.434-66.741 14.438-136.756 15.176-206.059.966-4.33-.889-8.556 1.902-9.444 6.229-.888 4.329 1.902 8.557 6.23 9.444 42.952 8.808 86.646 12.16 130.3 9.941.182 8.722.666 17.473 1.45 26.115.376 4.154 3.866 7.278 7.958 7.278 4.728 0 8.4-4.054 7.977-8.724-.772-8.517-1.233-17.145-1.395-25.739 60.693-4.988 119.851-20.727 174.857-46.42 2.542 7.227 5.695 14.231 9.447 20.904 1.469 2.611 4.184 4.08 6.98 4.08 6.03 0 9.989-6.546 6.966-11.922-3.597-6.397-6.576-13.139-8.903-20.108 49.548-25.067 95.441-58.372 135.676-99.314 3.095-3.152 3.051-8.218-.1-11.314z" fill="#715d62" data-original="#585966" class=""/>
        <path xmlns="http://www.w3.org/2000/svg" d="m468.832 340.915c8.8 13.63-1.84 31.43-18.01 30.13l-40.73-3.28-25.79 31.69c-10.23 12.58-30.45 7.97-34.21-7.81l-9.47-39.75-38.11-14.73c-15.13-5.85-16.99-26.51-3.14-34.96l34.87-21.29 2.24-40.79c.87-16.182 19.952-24.353 32.27-13.79l31.03 26.59 39.49-10.49c15.67-4.16 29.32 11.46 23.08 26.44l-15.7 37.72z" fill="#b5d5f5" data-original="#b5d5f5" class=""/>
        <path xmlns="http://www.w3.org/2000/svg" d="m379.822 403.525c-10.77 7.11-26.46 1.83-29.73-11.88l-9.1-38.2 29.63 11.45z" fill="#cbe3fa" data-original="#cbe3fa" class=""/>
        <path xmlns="http://www.w3.org/2000/svg" d="m379.662 235.685c-7.05 2.44-12.72 8.79-13.18 17.44l-2.24 40.79-34.87 21.29c-11.65 7.11-12.18 22.86-3.05 31.16l-23.81-9.2c-15.13-5.85-16.99-26.51-3.14-34.96l34.87-21.29 2.24-40.79c.87-16.18 19.95-24.35 32.27-13.79z" fill="#cbe3fa" data-original="#cbe3fa" class=""/>
        <path xmlns="http://www.w3.org/2000/svg" d="m224.312 336.215c16 2.62 22.07 22.45 10.26 33.57l-29.75 28 6.2 40.39c2.47 16.03-14.52 27.93-28.74 20.13l-35.84-19.64-36.49 18.38c-14.48 7.3-31.05-5.18-28.03-21.11l7.61-40.15-28.76-29.03c-11.42-11.52-4.66-31.13 11.42-33.18l40.54-5.17 18.71-36.32c7.432-14.418 28.164-14.061 35.09.61l17.45 36.95z" fill="#fff0a6" data-original="#fff0a6" class=""/>
        <path xmlns="http://www.w3.org/2000/svg" d="m167.602 294.965c-2.47 1.73-4.61 4.1-6.16 7.12l-18.71 36.32-40.54 5.17c-16.08 2.05-22.84 21.66-11.42 33.18l28.76 29.03-7.61 40.15c-.66 3.49-.38 6.82.62 9.81l-2.59 1.3c-14.48 7.3-31.05-5.18-28.03-21.11l7.61-40.15-28.76-29.03c-11.42-11.52-4.66-31.13 11.42-33.18l40.54-5.17 18.71-36.32c7.43-14.42 28.16-14.06 35.09.61z" fill="#fff8d6" data-original="#fff8d6" class=""/>
        <path xmlns="http://www.w3.org/2000/svg" d="m413.752 59.885c11.02 3.64 13.08 18.33 3.49 24.87l-13.37 9.08v12.09c-.046 13.238-15.335 20.695-25.82 12.57l-9.55-7.39-11.51 3.68c-12.64 4.03-24.41-8.17-19.94-20.65l4.09-11.37-9.43-13.1c-6.77-9.42.19-22.52 11.79-22.17l16.13.49 9.55-13.01c6.86-9.36 21.48-6.78 24.73 4.36l4.51 15.49z" fill="#fff0a6" data-original="#80aaff" class=""/>
        <path xmlns="http://www.w3.org/2000/svg" d="m394.292 40.645c-1.92.95-3.68 2.38-5.11 4.33l-9.55 13.01-16.13-.49c-11.6-.35-18.56 12.75-11.79 22.17l9.43 13.1-4.09 11.37c-1.33 3.72-1.22 7.41-.08 10.65-12.63 4.02-24.39-8.18-19.92-20.65l4.09-11.37-9.43-13.1c-6.77-9.42.19-22.52 11.79-22.17l16.13.49 9.55-13.01c6.86-9.36 21.48-6.78 24.73 4.36z" fill="#fff8d6" data-original="#9cbcff" class=""/>
        <path xmlns="http://www.w3.org/2000/svg" d="m257.792 90.385c14.98 6.22 16.33 26.92 2.29 35.03l-35.39 20.42-3.23 40.74c-1.296 16.155-20.556 23.847-32.61 12.99l-30.36-27.34-39.74 9.51c-15.77 3.77-29.03-12.18-22.43-26.99l16.62-37.33-21.32-34.85c-8.47-13.84 2.6-31.37 18.73-29.68l40.64 4.28 26.56-31.06c10.54-12.32 30.64-7.21 34.01 8.65l8.49 39.97z" fill="#ffa4b8" data-original="#ff6d7a" class=""/>
        <path xmlns="http://www.w3.org/2000/svg" d="m211.062 32.875c-2.73 1.944-1.761 1.184-30.07 34.29l-40.64-4.28c-16.13-1.69-27.2 15.84-18.73 29.68l21.32 34.85-16.62 37.33c-2.34 5.25-2.18 10.65-.29 15.25l-7.28 1.74c-15.77 3.77-29.03-12.18-22.43-26.99l16.62-37.33-21.32-34.85c-8.47-13.84 2.6-31.37 18.73-29.68l40.64 4.28 26.56-31.06c10.11-11.82 29.02-7.6 33.51 6.77z" fill="#ffbfcb" data-original="#ff8c95" class=""/>
    </g>
</svg>
