<svg id="Layer_1" enable-background="new 0 0 464.001 464.001" height="512" viewBox="0 0 464.001 464.001" width="512" xmlns="http://www.w3.org/2000/svg">
<path d="m419.732 368.181c31.252 0 52.343-31.353 41.3-60.2-20.051-52.61-61.321-81.89-122.01-81.89h-29.58l-84.51-117.05c-3.71-5.14-9.65-8.18-15.98-8.18h-52.82c-11.84 0-21.01 10.38-19.56 22.13l12.74 103.1h-28.86l-43-106.86c-3-7.46-10.24-12.35-18.28-12.35h-39.46c-11.99 0-21.21 10.63-19.51 22.5l27.29 190.94c3.93 27.46 27.45 47.86 55.19 47.86z" fill="#fff0a6"/>
<path d="m166.573 137.991 10.89 88.1h-28.15l-12.74-103.1c-1.45-11.75 7.72-22.13 19.56-22.13h24.95l1.83 15.27c-10.231 1.67-17.66 11.2-16.34 21.86z" fill="#fff8d6"/>
<path d="m40.203 149.381 9.35 65.43c-8.856 4.3-17.22 3.52-36.64 3.52l-12.71-88.95c-1.7-11.87 7.52-22.5 19.51-22.5h39.46c8.04 0 15.28 4.89 18.28 12.35l3.08 7.65h-20.82c-11.991 0-21.21 10.63-19.51 22.5z" fill="#fff8d6"/>
<path d="m463.222 315.691c-1.966-10.528-12.308-33.19-27.18-50-19.8-22.42-50.24-39.6-97.02-39.6h-218.57l-19.97-49.64-14.54 5.38c-26.11 9.67-19.41 36.5-54.42 36.5h-18.61l14.58 101.99c3.93 27.46 27.45 47.86 55.19 47.86h337.05c28.341 0 48.551-25.91 43.49-52.49z" fill="#b5d5f5"/>
<path d="m420.992 251.491c-12.28-3.45-26.19-5.4-41.97-5.4h-231.815c-13.204 0-13.26-20 0-20h191.815c36.251 0 62.691 10.32 81.97 25.4z" fill="#cbe3fa"/>
<path d="m79.843 368.111c-26.49-1.34-48.55-21.27-52.35-47.79l-14.58-101.99c18.715 0 27.685.828 36.64-3.52l17.94 125.51c1.52 10.56 5.919 20.08 12.35 27.79z" fill="#cbe3fa"/>
<path d="m463.222 315.691h-81.09c-33.26 0-33.29-50 0-50h53.91c14.896 16.836 25.239 39.606 27.18 50z" fill="#eef7ff"/>
<path d="m82.232 267.891c31.22 0 25.79 48.38-4.49 41.8l-66.95-14.56c-16.09-3.49-13.42-27.24 2.92-27.24z" fill="#fff0a6"/>
<path d="m100.602 277.891h-66.89c-11.28 0-16.05 11.32-12.61 19.48l-10.31-2.24c-16.09-3.49-13.42-27.24 2.92-27.24h68.52c9.221 0 15.25 4.22 18.37 10z" fill="#fff8d6"/>
<path d="m224.932 109.041 84.51 117.05h-113.38l-14.98-125.23h27.87c6.331 0 12.271 3.04 15.98 8.18z" fill="#cbe3fa"/>
<path d="m229.852 115.861c-47.509 0-44.72-.11-46.94.27l-1.83-15.27h27.87c6.33 0 12.27 3.04 15.98 8.18z" fill="#eef7ff"/>
<path d="m306.982 284.841c-45.931-7.151-92.777-6.202-138.81 3.02-8.33 1.67-14.66 8.49-15.7 16.92l-15.9 128.68c-1.45 11.76 7.72 22.13 19.56 22.13h52.82c6.33 0 12.27-3.04 15.98-8.17l94.99-131.56c8.611-11.93 1.591-28.75-12.94-31.02z" fill="#fff0a6"/>
<path d="m201.783 282.601-3.01 25.14c-9.519 1.898-15.31 9.021-16.3 17.04-16.984 137.555-16.04 129.261-16.04 130.81h-10.3c-11.84 0-21.01-10.37-19.56-22.13l15.9-128.68c1.04-8.43 7.37-15.25 15.7-16.92 11.179-2.24 22.389-3.99 33.61-5.26z" fill="#fff8d6"/>
<path d="m306.982 284.841c14.53 2.27 21.55 19.09 12.94 31.02l-94.99 131.56c-3.71 5.13-9.65 8.17-15.98 8.17h-27.87l20.7-172.99c35.331-3.97 70.71-3.13 105.2 2.24z" fill="#cbe3fa"/>
<path d="m323.612 302.991c-41.437-5.017-83.383-3.482-124.84 4.75l3.01-25.14c35.33-3.97 70.71-3.13 105.2 2.24 9.68 1.51 16.021 9.47 16.63 18.15z" fill="#eef7ff"/>
<path d="m394.332 108.681c52.52-2 53.42 82.52-41.33 71.76-56.85-76.54 16.701-118.18 41.33-71.76z" fill="#ffa4b8"/>
<path d="m366.763 181.371c-4.34-.08-8.93-.38-13.76-.93-52.38-70.52 5.94-111.42 34.69-81.1-26.35-2.34-53.3 30.92-20.93 82.03z" fill="#ffbfcb"/>
<path d="m284.682 22.881c15.85-33.15 68.45-6.2 30.96 48.92-65.859 10.28-67.699-48.78-30.96-48.92z" fill="#ffa4b8"/>
<path d="m323.852 18.471c-7.41.56-14.73 5.13-19.17 14.41-23.44.09-31.18 24.16-16.6 38.91-37.85-7.65-34.06-48.79-3.4-48.91 8.951-18.72 29.62-18.27 39.17-4.41z" fill="#ffbfcb"/>
</svg>